#!OML:ASF I:\Actors\actors\Patient Classification 2\Patient 1\Session 1\actor1.ASF
:FULLY-SPECIFIED
:DEGREES
401
root 0.720538 18.5111 4.06567 14.701 -22.9414 -6.14777
lowerback 27.6653 0.110165 -0.0958908
upperback 7.26389 0.0525359 1.0626
thorax -7.17876 -0.0444624 1.22275
lowerneck -14.3866 3.93349 7.61339
upperneck 30.6121 4.97173 -5.36931
head 12.9501 2.28747 -2.65789
rclavicle -8.74653e-015 -2.66371e-014
rhumerus -10.2309 41.325 -94.6014
rradius 107.898
rwrist -36.6141
rhand -32.275 -39.719
rfingers 7.12502
rthumb -5.51422 -69.6273
lclavicle -8.74653e-015 -2.66371e-014
lhumerus -0.94211 -28.5666 64.2397
lradius 67.5008
lwrist 15.7173
lhand -22.891 -55.1365
lfingers 7.12502
lthumb 3.54837 -25.1863
rfemur -19.8499 12.1488 11.9745
rtibia 9.93121
rfoot -7.78488 -7.25843
rtoes -14.2239
lfemur -27.1258 12.8904 -15.6595
ltibia 40.2268
lfoot -26.4572 12.3282
ltoes -52.5143
402
root 0.715045 18.5138 4.06752 14.6292 -22.4662 -6.27929
lowerback 27.5548 -0.239711 -0.204748
upperback 7.36712 -0.429794 0.9674
thorax -6.99834 -0.273568 1.33549
lowerneck -14.5764 4.31009 7.75498
upperneck 30.8061 5.43565 -5.29221
head 13.1159 2.50954 -2.58066
rclavicle -1.51076e-014 1.19271e-014
rhumerus -10.6919 40.3742 -93.8441
rradius 108.889
rwrist -35.7832
rhand -32.195 -39.4306
rfingers 7.12502
rthumb -5.43702 -69.3409
lclavicle -1.51076e-014 1.19271e-014
lhumerus 0.191108 -27.7071 65.0627
lradius 66.5109
lwrist 16.3714
lhand -22.9385 -55.7276
lfingers 7.12502
lthumb 3.50247 -25.7766
rfemur -19.6379 11.8002 12.2998
rtibia 10.0274
rfoot -7.83927 -7.29509
rtoes -14.8684
lfemur -27.046 12.5779 -15.3916
ltibia 40.2075
lfoot -26.3657 12.268
ltoes -52.5981
403
root 0.712402 18.5158 4.07158 14.59 -21.9178 -6.39777
lowerback 27.351 -0.651592 -0.1932
upperback 7.40774 -0.961078 0.811786
thorax -6.84335 -0.525901 1.3246
lowerneck -14.3098 4.67918 8.2635
upperneck 30.6696 5.92969 -5.59336
head 13.0763 2.74574 -2.70922
rclavicle 9.54166e-015 3.10104e-014
rhumerus -11.1991 39.4779 -92.694
rradius 110.221
rwrist -35.9612
rhand -32.0784 -40.1722
rfingers 7.12502
rthumb -5.32442 -70.0853
lclavicle 9.54166e-015 3.10104e-014
lhumerus 1.18165 -26.8854 65.6901
lradius 65.8812
lwrist 15.7994
lhand -23.2145 -55.6632
lfingers 7.12502
lthumb 3.23593 -25.7081
rfemur -19.4219 11.5378 12.5538
rtibia 10.0363
rfoot -7.98623 -7.49824
rtoes -14.8755
lfemur -27.0346 12.1789 -15.1409
ltibia 40.2017
lfoot -26.2849 12.2149
ltoes -52.6727
404
root 0.71294 18.5168 4.08026 14.558 -21.4129 -6.53427
lowerback 27.0747 -1.08599 -0.0919556
upperback 7.45813 -1.50045 0.627743
thorax -6.64722 -0.783468 1.22851
lowerneck -13.7815 5.02351 8.97053
upperneck 30.204 6.43967 -6.18758
head 12.8698 2.98075 -2.98159
rclavicle 9.30312e-014 -1.43125e-014
rhumerus -8.54378 38.8258 -91.9621
rradius 108.167
rwrist -36.3141
rhand -32.5 -40.4624
rfingers 7.12502
rthumb -5.73153 -70.3649
lclavicle 9.30312e-014 -1.43125e-014
lhumerus 1.97762 -26.48 66.059
lradius 65.4255
lwrist 15.953
lhand -23.3029 -55.2907
lfingers 7.12502
lthumb 3.15059 -25.3342
rfemur -19.1452 11.1038 12.8567
rtibia 9.93249
rfoot -7.99271 -7.5284
rtoes -14.5554
lfemur -27.0094 11.7735 -14.8901
ltibia 40.1927
lfoot -26.2692 12.1437
ltoes -52.6245
405
root 0.710833 18.5193 4.09056 14.532 -21.0719 -6.72324
lowerback 26.811 -1.39936 -0.00459968
upperback 7.50456 -1.89157 0.438845
thorax -6.46828 -0.970799 1.08565
lowerneck -13.6715 5.37736 9.35987
upperneck 30.2938 6.85213 -6.19824
head 12.9451 3.20205 -2.99072
rclavicle 3.18055e-014 -2.8625e-014
rhumerus -7.47828 38.13 -91.131
rradius 107.788
rwrist -36.5758
rhand -32.6368 -40.4521
rfingers 7.12502
rthumb -5.86359 -70.3509
lclavicle 3.18055e-014 -2.8625e-014
lhumerus 2.6019 -26.5342 66.1634
lradius 65.3181
lwrist 16.4962
lhand -23.0922 -54.6568
lfingers 7.12502
lthumb 3.35403 -24.7035
rfemur -18.8118 10.8381 13.1564
rtibia 9.67185
rfoot -7.9425 -7.56737
rtoes -14.3289
lfemur -26.9182 11.5208 -14.6084
ltibia 40.1604
lfoot -26.2607 12.1162
ltoes -52.6385
406
root 0.705421 18.5233 4.10041 14.504 -20.9061 -6.90284
lowerback 26.6094 -1.56116 -0.0231434
upperback 7.49374 -2.11237 0.308223
thorax -6.38261 -1.07584 1.01584
lowerneck -13.4532 5.65892 9.72304
upperneck 30.3565 7.2176 -6.33034
head 12.9869 3.38759 -3.05157
rclavicle -3.65764e-014 1.74931e-014
rhumerus -7.49843 37.6511 -90.3385
rradius 108.19
rwrist -36.0958
rhand -32.8521 -39.6941
rfingers 7.12502
rthumb -6.07143 -69.5871
lclavicle -3.65764e-014 1.74931e-014
lhumerus 2.79145 -26.8438 66.2485
lradius 65.7474
lwrist 17.0273
lhand -22.794 -54.1334
lfingers 7.12502
lthumb 3.64199 -24.1848
rfemur -18.4223 10.7396 13.4051
rtibia 9.22585
rfoot -7.8055 -7.63963
rtoes -14.084
lfemur -26.7671 11.4145 -14.3633
ltibia 40.0856
lfoot -26.2032 12.1476
ltoes -52.7141
